<svg width="36" height="37" viewBox="0 0 36 37" fill="none" xmlns="http://www.w3.org/2000/svg">
<path d="M6.11317 1.64606L5.75961 1.29328L5.40645 1.64645L1.64645 5.40645L1.29289 5.76L1.64645 6.11355L17.6464 22.1136L18 22.4671L18.3536 22.1136L34.3536 6.11355L34.7071 5.76L34.3536 5.40645L30.5936 1.64645L30.2404 1.29328L29.8868 1.64606L18 13.507L6.11317 1.64606Z" fill="white" stroke="black"/>
<path d="M6.11317 14.6461L5.75961 14.2933L5.40645 14.6464L1.64645 18.4064L1.29289 18.76L1.64645 19.1136L17.6464 35.1136L18 35.4671L18.3536 35.1136L34.3536 19.1136L34.7071 18.76L34.3536 18.4064L30.5936 14.6464L30.2404 14.2933L29.8868 14.6461L18 26.507L6.11317 14.6461Z" fill="white" stroke="black"/>
</svg>
