<svg width="34" height="34" viewBox="0 0 34 34" fill="none" xmlns="http://www.w3.org/2000/svg">
<path d="M11.7938 33.4469L11.8269 33.458L11.8612 33.4643C12.3742 33.5589 12.8186 33.4593 13.1343 33.1701C13.4349 32.8948 13.542 32.5168 13.542 32.2015C13.542 32.0251 13.5391 31.711 13.5351 31.2921C13.5305 30.8095 13.5246 30.188 13.5205 29.4778L13.5168 28.861L12.9142 28.9922C10.8255 29.4467 9.64258 28.9335 8.98516 28.3863C8.64618 28.1042 8.4264 27.796 8.292 27.5596C8.22498 27.4417 8.18001 27.3431 8.15269 27.2768C8.13906 27.2437 8.12991 27.2189 8.12468 27.2041L8.11972 27.1896C8.11964 27.1893 8.11968 27.1895 8.11963 27.1893C8.11941 27.1887 8.11925 27.1881 8.11932 27.1883L8.11434 27.1718L8.10685 27.1527C7.71848 26.1644 7.23719 25.5215 6.83672 25.1193C6.63713 24.9188 6.45926 24.7798 6.32563 24.6882C6.25885 24.6425 6.20319 24.6086 6.16145 24.5849C6.14798 24.5773 6.13595 24.5707 6.12547 24.5651C6.11127 24.5552 6.09751 24.5455 6.08418 24.5361C6.66028 24.6161 7.11912 24.9242 7.45404 25.2486C7.63326 25.4222 7.76939 25.5934 7.86008 25.7204C7.90519 25.7836 7.9384 25.8349 7.95949 25.8689C7.97001 25.8859 7.97746 25.8985 7.98181 25.906L7.98543 25.9122L7.98531 25.9123L7.99176 25.9234C8.78745 27.2891 9.86826 27.8126 10.8961 27.9045C11.8893 27.9934 12.7873 27.6769 13.2767 27.4566L13.5282 27.3433L13.5666 27.0702C13.6981 26.1334 14.0645 25.5454 14.4148 25.2382L15.2642 24.4933L14.1416 24.3655C12.3981 24.167 10.7012 23.7372 9.44085 22.6739C8.20445 21.6309 7.31117 19.9108 7.31117 16.9544C7.31117 15.3377 7.88361 14.0277 8.82425 12.9984L9.03734 12.7652L8.91827 12.4726C8.79037 12.1583 8.31637 10.7898 8.97362 8.88964C9.10632 8.89005 9.30058 8.90483 9.56009 8.95962C10.1988 9.0945 11.237 9.47283 12.722 10.4807L12.9139 10.611L13.1373 10.5486C14.3632 10.2063 15.6841 10.0347 17.0005 10.0278C18.3159 10.0347 19.6359 10.2063 20.864 10.5487L21.0873 10.6109L21.2792 10.4807C22.7633 9.47274 23.8004 9.09445 24.4384 8.9596C24.6974 8.90485 24.8913 8.89007 25.0238 8.88964C25.6827 10.7897 25.2089 12.1585 25.0814 12.4736L24.9631 12.766L25.1762 12.9987C26.1177 14.0271 26.686 15.3367 26.686 16.9544C26.686 19.9188 25.7912 21.637 24.5531 22.6755C23.2905 23.7346 21.59 24.1579 19.8401 24.3526L18.7011 24.4794L19.5687 25.2281C20.0074 25.6067 20.4786 26.4308 20.4786 27.8129C20.4786 28.8806 20.4737 29.8455 20.4688 30.6092C20.4672 30.8654 20.4656 31.0995 20.4641 31.3075C20.4612 31.7177 20.459 32.0261 20.459 32.2015C20.459 32.5159 20.5638 32.8974 20.8669 33.1746C21.1858 33.4664 21.6347 33.5623 22.1517 33.4625L22.1842 33.4563L22.2156 33.4458C28.7544 31.2589 33.4688 25.0795 33.4688 17.7913C33.4688 8.6789 26.0955 1.29077 16.9986 1.29077C7.90456 1.29077 0.53125 8.67896 0.53125 17.7913C0.53125 25.0814 5.2497 31.265 11.7938 33.4469Z" fill="white" stroke="black"/>
</svg>
