<svg width="34" height="29" viewBox="0 0 34 29" fill="none" xmlns="http://www.w3.org/2000/svg">
<path d="M18.3767 20.3785L18.3768 20.3786L18.3831 20.3721L23.2141 15.3633C23.5848 14.9914 23.7576 14.6184 23.7576 14.1529C23.7576 13.7056 23.5875 13.3172 23.2141 12.9426L18.3831 7.93369L18.3831 7.93363L18.3767 7.92719C18.0761 7.6267 17.7166 7.43978 17.2373 7.43978C16.3303 7.43978 15.6993 8.14677 15.6993 9.02224C15.6993 9.42838 15.8657 9.87998 16.2188 10.193L18.5967 12.4232L18.6005 12.4268L18.6953 12.5177L17.806 12.4819L17.796 12.4814H17.7859H2.1418C1.23054 12.4814 0.5 13.2517 0.5 14.1529C0.5 15.0459 1.22257 15.8392 2.1418 15.8392H17.7859H17.7977L17.8094 15.8387L18.6856 15.7975L18.5993 15.8802L18.5967 15.8827L16.2181 18.1283C15.8631 18.4434 15.6993 18.8963 15.6993 19.3132C15.6993 20.198 16.3392 20.8809 17.2373 20.8809C17.7322 20.8809 18.0895 20.6657 18.3767 20.3785ZM8.50325 17.8791H8.00325V18.3791V22.6645C8.00325 24.2837 8.40834 25.5955 9.30009 26.5002C10.1931 27.4062 11.492 27.8207 13.1001 27.8207H28.4031C30.018 27.8207 31.3175 27.4065 32.2091 26.4998C33.0992 25.5946 33.5 24.2825 33.5 22.6645V5.65617C33.5 4.0233 33.0955 2.71027 32.2023 1.80848C31.3083 0.905809 30.0088 0.5 28.4031 0.5H13.1001C11.4945 0.5 10.195 0.905809 9.30092 1.80848C8.40776 2.71027 8.00325 4.0233 8.00325 5.65617V9.92679V10.4268H8.50325H10.8907H11.3907V9.92679V5.68584C11.3907 5.04847 11.565 4.61763 11.8374 4.3452C12.1096 4.07295 12.5514 3.88737 13.2336 3.88737H28.2845C28.9666 3.88737 29.4035 4.07286 29.6716 4.34352C29.9406 4.61513 30.1126 5.04603 30.1126 5.68584V22.62C30.1126 23.2771 29.9393 23.7105 29.6716 23.9808C29.4047 24.2502 28.9689 24.4333 28.2845 24.4333H13.2336C12.5491 24.4333 12.1084 24.2502 11.8374 23.9792C11.5663 23.708 11.3907 23.2747 11.3907 22.62V18.3791V17.8791H10.8907H8.50325Z" fill="white" stroke="black"/>
</svg>
